<mxfile host="app.diagrams.net" modified="2021-07-20T07:58:47.063Z" agent="5.0 (X11)" etag="yHlrkwQgPElbyxkzOXpm" version="14.9.0" type="github">
  <diagram id="riyk40OfWNph8dqrFOqa" name="Page-1">
    <mxGraphModel dx="1049" dy="613" grid="1" gridSize="10" guides="1" tooltips="1" connect="1" arrows="1" fold="1" page="1" pageScale="1" pageWidth="850" pageHeight="1100" math="0" shadow="0">
      <root>
        <mxCell id="0" />
        <mxCell id="1" parent="0" />
        <mxCell id="re6RFdrfjhFSBnEOqivP-11" style="rounded=0;orthogonalLoop=1;jettySize=auto;html=1;entryX=1;entryY=0;entryDx=0;entryDy=0;exitX=0.5;exitY=1;exitDx=0;exitDy=0;" parent="1" source="re6RFdrfjhFSBnEOqivP-1" target="re6RFdrfjhFSBnEOqivP-5" edge="1">
          <mxGeometry relative="1" as="geometry">
            <mxPoint x="405" y="180" as="sourcePoint" />
          </mxGeometry>
        </mxCell>
        <mxCell id="re6RFdrfjhFSBnEOqivP-12" style="edgeStyle=none;rounded=0;orthogonalLoop=1;jettySize=auto;html=1;exitX=0.5;exitY=1;exitDx=0;exitDy=0;" parent="1" source="re6RFdrfjhFSBnEOqivP-1" target="re6RFdrfjhFSBnEOqivP-4" edge="1">
          <mxGeometry relative="1" as="geometry" />
        </mxCell>
        <mxCell id="re6RFdrfjhFSBnEOqivP-13" style="edgeStyle=none;rounded=0;orthogonalLoop=1;jettySize=auto;html=1;exitX=0.5;exitY=1;exitDx=0;exitDy=0;entryX=0;entryY=0;entryDx=0;entryDy=0;" parent="1" source="re6RFdrfjhFSBnEOqivP-1" target="re6RFdrfjhFSBnEOqivP-3" edge="1">
          <mxGeometry relative="1" as="geometry" />
        </mxCell>
        <mxCell id="re6RFdrfjhFSBnEOqivP-1" value="S&lt;sup&gt;(0)&lt;/sup&gt;" style="ellipse;whiteSpace=wrap;html=1;" parent="1" vertex="1">
          <mxGeometry x="370" y="130" width="70" height="40" as="geometry" />
        </mxCell>
        <mxCell id="re6RFdrfjhFSBnEOqivP-2" value="S&lt;sup&gt;(11)&lt;/sup&gt;" style="ellipse;whiteSpace=wrap;html=1;" parent="1" vertex="1">
          <mxGeometry x="180" y="290" width="70" height="40" as="geometry" />
        </mxCell>
        <mxCell id="re6RFdrfjhFSBnEOqivP-19" style="edgeStyle=none;rounded=0;orthogonalLoop=1;jettySize=auto;html=1;exitX=1;exitY=1;exitDx=0;exitDy=0;" parent="1" source="re6RFdrfjhFSBnEOqivP-3" target="re6RFdrfjhFSBnEOqivP-10" edge="1">
          <mxGeometry relative="1" as="geometry" />
        </mxCell>
        <mxCell id="re6RFdrfjhFSBnEOqivP-20" style="edgeStyle=none;rounded=0;orthogonalLoop=1;jettySize=auto;html=1;exitX=1;exitY=1;exitDx=0;exitDy=0;" parent="1" source="re6RFdrfjhFSBnEOqivP-3" target="re6RFdrfjhFSBnEOqivP-9" edge="1">
          <mxGeometry relative="1" as="geometry" />
        </mxCell>
        <mxCell id="re6RFdrfjhFSBnEOqivP-21" style="edgeStyle=none;rounded=0;orthogonalLoop=1;jettySize=auto;html=1;exitX=1;exitY=1;exitDx=0;exitDy=0;entryX=0;entryY=0;entryDx=0;entryDy=0;" parent="1" source="re6RFdrfjhFSBnEOqivP-3" target="re6RFdrfjhFSBnEOqivP-18" edge="1">
          <mxGeometry relative="1" as="geometry" />
        </mxCell>
        <mxCell id="re6RFdrfjhFSBnEOqivP-3" value="S&lt;sup&gt;(3)&lt;/sup&gt;" style="ellipse;whiteSpace=wrap;html=1;" parent="1" vertex="1">
          <mxGeometry x="495" y="200" width="70" height="40" as="geometry" />
        </mxCell>
        <mxCell id="re6RFdrfjhFSBnEOqivP-16" style="edgeStyle=none;rounded=0;orthogonalLoop=1;jettySize=auto;html=1;exitX=0.5;exitY=1;exitDx=0;exitDy=0;entryX=0.5;entryY=0;entryDx=0;entryDy=0;" parent="1" source="re6RFdrfjhFSBnEOqivP-4" target="re6RFdrfjhFSBnEOqivP-6" edge="1">
          <mxGeometry relative="1" as="geometry" />
        </mxCell>
        <mxCell id="re6RFdrfjhFSBnEOqivP-17" style="edgeStyle=none;rounded=0;orthogonalLoop=1;jettySize=auto;html=1;exitX=0.5;exitY=1;exitDx=0;exitDy=0;entryX=0.271;entryY=-0.025;entryDx=0;entryDy=0;entryPerimeter=0;" parent="1" source="re6RFdrfjhFSBnEOqivP-4" target="re6RFdrfjhFSBnEOqivP-8" edge="1">
          <mxGeometry relative="1" as="geometry" />
        </mxCell>
        <mxCell id="re6RFdrfjhFSBnEOqivP-4" value="S&lt;sup&gt;(2)&lt;/sup&gt;" style="ellipse;whiteSpace=wrap;html=1;" parent="1" vertex="1">
          <mxGeometry x="370" y="200" width="70" height="40" as="geometry" />
        </mxCell>
        <mxCell id="re6RFdrfjhFSBnEOqivP-14" style="edgeStyle=none;rounded=0;orthogonalLoop=1;jettySize=auto;html=1;exitX=0.5;exitY=1;exitDx=0;exitDy=0;" parent="1" source="re6RFdrfjhFSBnEOqivP-5" target="re6RFdrfjhFSBnEOqivP-2" edge="1">
          <mxGeometry relative="1" as="geometry" />
        </mxCell>
        <mxCell id="re6RFdrfjhFSBnEOqivP-15" style="edgeStyle=none;rounded=0;orthogonalLoop=1;jettySize=auto;html=1;exitX=0.5;exitY=1;exitDx=0;exitDy=0;" parent="1" source="re6RFdrfjhFSBnEOqivP-5" target="re6RFdrfjhFSBnEOqivP-7" edge="1">
          <mxGeometry relative="1" as="geometry" />
        </mxCell>
        <mxCell id="re6RFdrfjhFSBnEOqivP-5" value="S&lt;sup&gt;(1)&lt;/sup&gt;" style="ellipse;whiteSpace=wrap;html=1;" parent="1" vertex="1">
          <mxGeometry x="260" y="200" width="70" height="40" as="geometry" />
        </mxCell>
        <mxCell id="re6RFdrfjhFSBnEOqivP-6" value="S&lt;sup&gt;(21)&lt;/sup&gt;" style="ellipse;whiteSpace=wrap;html=1;" parent="1" vertex="1">
          <mxGeometry x="360" y="290" width="70" height="40" as="geometry" />
        </mxCell>
        <mxCell id="re6RFdrfjhFSBnEOqivP-7" value="S&lt;sup&gt;(12)&lt;/sup&gt;" style="ellipse;whiteSpace=wrap;html=1;" parent="1" vertex="1">
          <mxGeometry x="270" y="290" width="70" height="40" as="geometry" />
        </mxCell>
        <mxCell id="re6RFdrfjhFSBnEOqivP-8" value="S&lt;sup&gt;(22)&lt;/sup&gt;" style="ellipse;whiteSpace=wrap;html=1;" parent="1" vertex="1">
          <mxGeometry x="450" y="290" width="70" height="40" as="geometry" />
        </mxCell>
        <mxCell id="re6RFdrfjhFSBnEOqivP-9" value="S&lt;sup&gt;(32)&lt;/sup&gt;" style="ellipse;whiteSpace=wrap;html=1;" parent="1" vertex="1">
          <mxGeometry x="620" y="290" width="70" height="40" as="geometry" />
        </mxCell>
        <mxCell id="re6RFdrfjhFSBnEOqivP-10" value="S&lt;sup&gt;(31)&lt;/sup&gt;" style="ellipse;whiteSpace=wrap;html=1;" parent="1" vertex="1">
          <mxGeometry x="540" y="290" width="70" height="40" as="geometry" />
        </mxCell>
        <mxCell id="re6RFdrfjhFSBnEOqivP-18" value="S&lt;sup&gt;(33)&lt;/sup&gt;" style="ellipse;whiteSpace=wrap;html=1;" parent="1" vertex="1">
          <mxGeometry x="700" y="290" width="70" height="40" as="geometry" />
        </mxCell>
      </root>
    </mxGraphModel>
  </diagram>
</mxfile>
